<?xml version="1.0" standalone="no"?>
<!DOCTYPE svg PUBLIC "-//W3C//DTD SVG 20010904//EN"
 "http://www.w3.org/TR/2001/REC-SVG-20010904/DTD/svg10.dtd">
<svg version="1.0" xmlns="http://www.w3.org/2000/svg"
 width="247.000000pt" height="300.000000pt" viewBox="0 0 247.000000 300.000000"
 preserveAspectRatio="xMidYMid meet">
<metadata>
Created by potrace 1.10, written by Peter Selinger 2001-2011
</metadata>
<g transform="translate(0.000000,300.000000) scale(0.100000,-0.100000)"
fill="#f8370e" stroke="none">
<path d="M1040 2945 c-159 -28 -323 -93 -465 -186 -103 -66 -268 -231 -334
-334 -240 -368 -268 -807 -76 -1200 159 -329 450 -558 820 -646 143 -34 377
-34 515 0 312 76 539 226 727 481 88 119 151 264 195 442 33 135 32 381 -1
518 -56 226 -153 406 -308 571 -174 184 -443 322 -698 359 -95 13 -284 11
-375 -5z m484 -79 c254 -68 483 -221 637 -425 259 -347 299 -816 101 -1206
-48 -96 -150 -231 -230 -306 -358 -334 -869 -411 -1302 -194 -161 80 -345 244
-443 396 -224 343 -248 767 -66 1134 162 327 460 549 834 621 116 22 347 12
469 -20z"/>
<path d="M829 2456 c-99 -27 -195 -111 -241 -212 -18 -40 -23 -67 -23 -144 0
-84 3 -102 29 -154 111 -232 409 -285 589 -105 118 118 145 275 72 425 -76
155 -256 236 -426 190z m231 -66 c69 -35 106 -67 138 -118 101 -161 41 -368
-133 -460 -43 -23 -63 -27 -135 -27 -106 0 -165 24 -232 96 -159 170 -94 443
125 521 70 25 175 20 237 -12z"/>
<path d="M831 2353 c-25 -9 -66 -37 -91 -62 -177 -177 -38 -481 210 -458 263
24 341 370 111 500 -66 37 -161 46 -230 20z m199 -40 c44 -18 87 -58 110 -103
18 -36 23 -65 21 -135 l-1 -40 -21 35 c-28 45 -47 59 -83 60 -23 0 -48 18
-117 85 -47 47 -95 85 -105 85 -31 0 0 22 43 31 46 9 105 2 153 -18z m-263
-51 c-45 -46 -49 -84 -12 -108 13 -8 29 -13 35 -9 5 3 10 -2 10 -12 0 -30 29
-63 56 -63 13 0 24 5 24 10 0 17 22 11 47 -12 14 -13 23 -33 23 -51 0 -20 11
-40 35 -64 30 -30 40 -35 71 -31 l37 4 -23 -18 c-24 -19 -110 -48 -145 -48
-42 0 -121 30 -156 59 -51 42 -79 107 -79 181 0 33 6 76 14 94 13 31 79 106
93 106 4 0 -10 -17 -30 -38z m162 -76 c70 -70 98 -92 113 -88 28 7 66 -16 77
-48 12 -35 -4 -69 -42 -90 -24 -13 -30 -13 -54 0 -35 20 -59 66 -44 84 8 9 -1
23 -32 54 -43 42 -43 43 -62 22 -10 -11 -24 -20 -32 -20 -24 0 -26 30 -4 54
l21 23 -20 18 c-20 18 -21 18 -45 -5 -24 -22 -26 -23 -42 -7 -16 16 -15 19 22
57 21 22 42 40 45 40 3 0 47 -42 99 -94z"/>
<path d="M1024 2039 c-8 -14 21 -43 35 -35 6 4 11 16 11 27 0 21 -34 27 -46 8z"/>
<path d="M1432 2458 c-7 -7 -12 -19 -12 -27 0 -20 370 -391 390 -391 21 0 130
108 130 128 0 9 -64 81 -143 159 l-143 143 -105 0 c-68 0 -109 -4 -117 -12z
m342 -155 l135 -138 -41 -42 c-23 -24 -49 -43 -58 -43 -19 0 -363 343 -354
353 4 4 47 7 95 7 l87 0 136 -137z"/>
<path d="M1439 2112 c-81 -82 -109 -117 -120 -152 -7 -25 -28 -66 -46 -93
l-32 -47 47 -45 c45 -42 46 -45 30 -62 -17 -16 -16 -19 14 -50 30 -31 31 -34
15 -51 -9 -10 -17 -27 -17 -37 0 -22 469 -498 514 -522 64 -34 139 13 139 88
0 41 -3 45 -260 300 -142 143 -264 259 -271 259 -7 0 -21 -9 -31 -19 -19 -19
-20 -18 -52 15 l-33 34 174 175 175 175 -70 70 -70 70 -106 -108z m161 13 l44
-45 -154 -155 -154 -155 -27 25 -26 26 46 92 c38 77 60 106 131 175 47 45 87
82 90 82 3 0 26 -20 50 -45z m-127 -499 c16 -13 15 -16 -19 -50 -35 -35 -38
-36 -56 -20 -18 17 -18 18 14 51 36 37 36 37 61 19z m323 -397 l-50 -50 -163
163 -162 162 47 51 47 52 166 -164 165 -164 -50 -50z m74 -4 c11 -13 8 -21
-20 -50 -32 -33 -35 -34 -52 -18 -18 16 -17 18 14 50 36 38 41 39 58 18z m64
-71 c9 -24 -20 -64 -48 -64 -37 0 -38 12 -4 47 36 37 43 40 52 17z"/>
<path d="M1157 1754 c-27 -19 -68 -39 -90 -45 -35 -10 -83 -53 -295 -263 -269
-268 -286 -290 -258 -345 29 -55 80 -75 129 -50 28 14 647 631 647 644 0 6
-19 29 -42 51 l-43 41 -48 -33z m73 -39 l24 -26 -255 -255 -255 -255 -50 50
-50 50 181 181 c170 169 188 185 276 230 52 26 97 48 100 49 3 0 16 -10 29
-24z m-552 -508 c31 -32 32 -34 14 -50 -17 -16 -20 -15 -52 18 -28 29 -31 37
-20 50 17 21 22 20 58 -18z m-54 -54 l48 -51 -23 -12 c-29 -16 -76 -15 -95 1
-19 15 -18 69 2 97 9 13 17 22 18 20 0 -2 23 -27 50 -55z"/>
<path d="M130 271 l0 -261 80 0 80 0 0 190 0 190 25 0 c29 0 50 -31 33 -48 -7
-7 -18 -12 -25 -12 -9 0 -13 -19 -13 -69 l0 -70 33 -3 c24 -2 32 -8 32 -23 0
-15 -8 -21 -32 -23 l-33 -3 0 -65 0 -64 46 0 c95 0 154 56 154 146 0 56 -27
108 -60 119 -22 7 -22 7 5 35 56 59 39 162 -33 196 -27 13 -72 19 -164 22
l-128 5 0 -262z m280 201 c33 -16 35 -20 38 -71 3 -43 -1 -61 -18 -83 -23 -31
-19 -46 25 -87 21 -19 25 -32 25 -75 -1 -71 -42 -116 -107 -116 -31 0 -33 2
-33 34 0 27 5 35 23 40 13 3 29 17 37 30 11 22 11 29 -4 51 -9 14 -25 25 -36
25 -16 0 -20 7 -20 36 0 21 8 47 20 61 27 35 25 57 -6 82 -33 26 -49 26 -74 1
-18 -18 -20 -33 -20 -190 l0 -170 -45 0 -44 0 -3 163 c-2 90 -1 191 0 225 l4
62 101 0 c77 0 111 -4 137 -18z"/>
<path d="M560 193 l0 -183 55 0 55 0 -4 130 c-2 119 -1 130 15 130 36 0 49
-11 38 -31 -5 -10 -16 -19 -23 -19 -19 0 -9 -104 16 -162 l20 -48 59 0 58 0
-31 74 -31 74 21 22 c39 42 31 122 -18 165 -18 16 -41 21 -126 25 l-104 5 0
-182z m169 138 c25 -5 51 -17 58 -27 20 -27 16 -88 -8 -118 l-21 -27 21 -51
c27 -64 26 -68 -4 -68 -19 0 -28 9 -45 46 -25 59 -26 96 0 119 24 22 26 52 3
77 -19 21 -66 24 -81 5 -6 -7 -13 -64 -14 -128 -3 -110 -4 -114 -25 -117 -23
-3 -23 -3 -23 147 l0 151 48 0 c26 -1 67 -5 91 -9z"/>
<path d="M1142 359 c-124 -61 -138 -250 -24 -323 41 -26 116 -46 94 -24 -6 6
-33 23 -59 37 -107 58 -113 209 -11 271 37 22 125 27 161 9 33 -17 67 -51 67
-66 0 -22 -50 -15 -82 12 -42 36 -88 33 -127 -6 -51 -51 -53 -101 -6 -157 14
-17 39 -33 55 -37 36 -8 87 17 102 50 8 18 19 25 40 25 15 0 28 -5 28 -11 0
-28 -44 -79 -84 -98 -57 -26 -68 -43 -24 -34 44 8 83 31 106 62 19 26 47 99
40 106 -1 2 -27 5 -57 6 -51 3 -54 2 -66 -28 -35 -82 -155 -42 -141 47 6 42
38 70 77 70 28 0 37 -6 62 -43 11 -16 21 -18 70 -12 53 7 57 9 51 29 -33 113
-164 168 -272 115z"/>
<path d="M1560 365 c-72 -33 -110 -94 -110 -177 0 -89 54 -160 133 -178 51
-11 46 4 -10 32 -75 38 -107 99 -93 180 14 73 73 118 159 118 92 0 152 -58
153 -148 0 -68 -23 -107 -88 -148 -31 -20 -54 -37 -52 -40 9 -9 80 19 108 43
44 37 60 74 60 140 0 70 -21 115 -73 157 -46 36 -130 46 -187 21z"/>
<path d="M2004 364 c2 -6 25 -43 50 -83 l46 -71 0 -100 0 -100 55 0 55 0 0
100 0 101 50 74 c28 41 50 78 50 82 0 4 -25 6 -55 5 -50 -4 -56 -7 -76 -38
-11 -19 -22 -34 -24 -34 -2 0 -13 15 -24 34 -20 31 -26 34 -76 38 -37 2 -54
-1 -51 -8z m113 -59 c35 -39 49 -38 82 5 19 26 51 41 51 24 0 -4 -16 -32 -35
-64 -33 -54 -35 -63 -35 -144 0 -85 0 -86 -25 -86 -25 0 -25 1 -25 88 0 82 -2
90 -35 142 -19 30 -35 58 -35 62 0 19 29 5 57 -27z"/>
<path d="M880 190 l0 -180 55 0 55 0 0 180 0 180 -55 0 -55 0 0 -180z m80 0
c0 -143 -1 -150 -20 -150 -19 0 -20 7 -20 150 0 143 1 150 20 150 19 0 20 -7
20 -150z"/>
<path d="M1870 220 c5 -145 6 -150 31 -176 18 -18 41 -28 73 -31 l46 -6 0 57
c0 49 -2 56 -20 56 -19 0 -20 7 -20 125 l0 125 -57 0 -58 0 5 -150z m70 39 c0
-88 16 -158 37 -166 7 -3 13 -18 13 -34 0 -27 -1 -28 -30 -17 -53 18 -60 39
-60 175 0 116 1 123 20 123 18 0 20 -7 20 -81z"/>
<path d="M1568 271 c-29 -26 -33 -36 -33 -80 0 -41 5 -55 29 -80 52 -54 117
-49 156 14 31 51 27 100 -14 141 -45 45 -92 47 -138 5z m126 -32 c29 -35 30
-37 16 -75 -33 -86 -150 -64 -150 27 0 75 86 106 134 48z"/>
</g>
</svg>
